<?xml version="1.0" encoding="utf-8"?>
<!DOCTYPE svg PUBLIC "-//W3C//DTD SVG 1.1//EN" "http://www.w3.org/Graphics/SVG/1.1/DTD/svg11.dtd">
<svg version="1.1" id="图形" xmlns="http://www.w3.org/2000/svg" xmlns:xlink="http://www.w3.org/1999/xlink" x="0px" y="0px" width="1024px" height="1024px" viewBox="0 0 1024 1024" enable-background="new 0 0 1024 1024" xml:space="preserve">
  <path fill="#aaa" d="M456.86682 128.748684 594.02669 128.748684 456.86682 128.748684ZM594.02669 106.325999 456.86682 106.325999c-12.437264 0-22.421662 10.029424-22.421662 22.421662s9.984399 22.420639 22.421662 22.420639l137.158846 0c12.392238 0 22.421662-10.028401 22.421662-22.420639S606.418928 106.325999 594.02669 106.325999zM479.99047 58.220375 570.816059 58.220375 479.99047 58.220375ZM570.816059 35.800759l-90.826612 0c-12.349259 0-22.421662 10.028401-22.421662 22.419616 0 12.395308 10.072403 22.422685 22.421662 22.422685l90.826612 0c12.43624 0 22.421662-10.027377 22.421662-22.422685C593.238744 45.828137 583.253322 35.800759 570.816059 35.800759zM594.02669 174.949936c-12.393261 0-22.420639 10.029424-22.420639 22.421662l0 34.226522c0 8.997931 5.342682 17.098423 13.663184 20.624736 56.579623 24.085558 93.103468 79.32772 93.103468 140.791583 0 84.364433-68.581981 152.987347-152.924925 152.987347s-153.010883-68.622914-153.010883-152.987347c0-61.441351 36.610826-116.706025 93.190449-140.791583 8.276501-3.5038 13.664208-11.626805 13.664208-20.624736l0-34.226522c0-12.392238-10.072403-22.421662-22.421662-22.421662-12.437264 0-22.421662 10.029424-22.421662 22.421662l0 20.013823C369.063055 251.21797 327.591525 318.611893 327.591525 393.016487c0 109.088534 88.769766 197.832717 197.85523 197.832717 109.044532 0 197.769272-88.744183 197.769272-197.832717 0-74.404594-41.427528-141.79647-106.766652-175.631066l0-20.013823C616.448352 184.97936 606.418928 174.949936 594.02669 174.949936zM974.936049 316.990976c0 247.299339-200.396099 447.758883-447.737394 447.758883-247.25329 0-447.693392-200.459544-447.693392-447.758883 0-247.296269 200.440102-447.715905 447.693392-447.715905 101.511975 0 194.440457 34.528398 269.587971 91.438549 3.064802 3.526313 5.079692 7.969509 5.079692 12.985756 0 10.94733-8.847505 19.813255-19.795858 19.813255-5.691629 0-10.771321-2.208295-14.450107-6.042623l-0.174985 0c-67.222007-49.442062-149.946081-79.071893-239.810784-79.071893-223.868697 0-405.432892 181.571359-405.432892 405.456429 0 223.937259 181.564195 405.502477 405.432892 405.502477 223.955678 0 405.434939-181.564195 405.434939-405.502477 0-68.40188-16.030092-132.753513-45.939285-189.313693l0-0.326435c-0.571005-1.882883-1.182942-3.701299-1.182942-5.716188 0-10.968819 8.93244-19.857257 19.837814-19.857257 8.583492 0 15.721053 5.474688 18.525935 13.025665l0-0.150426C956.149171 173.155057 974.936049 242.871885 974.936049 316.990976L974.936049 316.990976z" transform="translate(0, 812) scale(1, -1)"/>
</svg>
